<?xml version="1.0" encoding="utf-8"?>
<!-- Generator: Adobe Illustrator 23.0.0, SVG Export Plug-In . SVG Version: 6.00 Build 0)  -->
<svg version="1.1" id="Layer_1" xmlns="http://www.w3.org/2000/svg" xmlns:xlink="http://www.w3.org/1999/xlink" x="0px" y="0px"
	 viewBox="0 0 1920 1080" style="enable-background:new 0 0 1920 1080;" xml:space="preserve">
<style type="text/css">
	.st0{opacity:5.000000e-02;}
	.st1{fill:#FFFFFF;}
</style>
<g class="st0">
	<path class="st1" d="M-0.2,549.9c31.2-3.8,62.5-7.6,93.7-11.5c44.5-5.5,88.9-11,133.4-16.5c44.8-5.5,89.6-11.1,134.4-16.6
		c44.5-5.5,88.9-10.9,133.4-16.4c46.1-5.7,92.2-11.4,139.3-17.3c-1.9-2.1-3.2-3.6-4.6-5.2c-15.2-16.9-15.5-35.4-0.4-52.4
		c13.7-15.5,31.6-24.8,50.2-32.8c30.2-13,61.7-21.6,94.1-27c27.9-4.7,55.9-8.5,83.9-11.8c14.3-1.7,28.9-1.9,43.3-2.4
		c19.1-0.7,38.2-1.8,57.2-1.2c30.6,1,61.3,2.4,91.8,5.3c25.7,2.4,51.3,6.3,76.7,11c36.4,6.7,72.2,16.1,104.8,34.2
		c9.9,5.5,18.9,6.4,29.7,5c59.1-7.7,118.3-14.8,177.4-22.1c49.9-6.1,99.8-12.2,149.7-18.4c49.9-6.2,99.8-12.5,149.7-18.6
		c49.9-6.2,99.8-12.2,149.7-18.3c10.9-1.3,21.8-2.6,32.7-3.8c0,1.3,0,2.7,0,4c-15.5,2-31,4-46.5,6c-20.1,2.5-40.2,5-60.4,7.5
		c-20.1,2.5-40.2,5-60.4,7.5c-20.1,2.5-40.2,5-60.4,7.5c-20.1,2.5-40.2,5-60.4,7.5c-20,2.5-39.9,4.9-59.9,7.4
		c-20.1,2.5-40.2,5.1-60.4,7.6c-23.1,2.9-46.2,5.8-69.3,8.6c-22.6,2.8-45.2,5.6-67.8,8.4c-22.9,2.8-45.9,5.7-68.8,8.6
		c-17.5,2.2-35,4.3-52.5,6.5c-0.8,0.1-1.5,0.2-3,0.4c1.5,1.3,2.4,2.1,3.3,3c4.1,4.1,8.7,7.9,12.3,12.3c12.1,14.7,12.3,31.1,0.8,46.2
		c-10.4,13.6-24.5,22.4-39.5,29.9c-30.1,15.1-62.3,24-95.1,31c-40.3,8.5-81.1,13.3-122.2,15.9c-48.6,3.1-97.3,2.7-145.8-1.2
		c-43.6-3.5-86.8-9.5-129.2-20.5c-28.1-7.3-55.6-16.3-80.8-31.2c-0.9-0.5-1.9-0.9-2.5-1.6c-8.1-8.5-17.8-7.8-28.4-6.3
		c-34.3,4.7-68.7,8.7-103,13c-33.5,4.2-67,8.5-100.5,12.6c-33.5,4.2-67.1,8.2-100.6,12.4c-36.2,4.5-72.3,9.1-108.5,13.6
		c-33.5,4.2-67.1,8.2-100.6,12.4c-33.5,4.2-67,8.4-100.6,12.6c-3.1,0.4-6.3,0.9-9.4,1.3C-0.2,553.9-0.2,551.9-0.2,549.9z M655,474.3
		c0.4,0.9,0.4,1.2,0.6,1.4c1,0.8,2.1,1.6,3.2,2.4c15.7,11,33.1,18.5,51.1,24.7c39.9,13.8,81.2,21.2,123,26.2
		c42,5,84.2,6.9,126.5,6.3c35.6-0.4,71.2-2.8,106.5-7.4c44.6-5.9,88.7-14.2,130.7-31c16.9-6.8,33.1-14.9,46.9-27.1
		c7.4-6.5,13.6-13.8,16.1-23.6c3.9-15.4-3.7-26.5-13.7-37c-5.4-5.7-11-7.5-18.9-6.4c-44.2,6-88.4,11.4-132.6,16.9
		c-38.9,4.8-77.9,9.5-116.9,14.3c-4.1,0.5-9.3,0-12.1,2.2c-7.7,6.1-16.3,5.8-25,5.7c-7.3,0-14.6-0.9-21.7-0.3
		c-11.8,0.9-23.5,2.7-35.2,4.2c-25.7,3.2-51.5,6.4-77.2,9.6c-25.4,3.2-50.8,6.3-76.3,9.4C705.3,468,680.4,471.1,655,474.3z
		 M1230.9,397.7c-3.2-2-5.3-3.4-7.4-4.5c-22.7-12.7-47-20.9-72-27.4c-41.8-10.8-84.4-16.6-127.5-20c-36.2-2.9-72.5-3.4-108.8-2.5
		c-17.9,0.4-35.8,2.1-53.7,3.6c-31.6,2.8-63.1,6.9-94.2,13.7c-26.2,5.7-51.9,12.7-76.5,23.3c-17.2,7.4-33.7,16.1-46.6,30.1
		c-16,17.4-15.2,37.2,2,53.4c1.2,1.2,3.5,2.1,5.2,1.9c34.9-4.2,69.7-8.5,104.6-12.8c45.1-5.6,90.2-10.9,135.3-16.9
		c12-1.6,24.6-0.6,35.7-8.1c4.2-2.8,10.9-2.3,16.5-2.6c9.4-0.4,18.6,3.5,28.2,0.9c2.5-0.7,5.3-0.7,7.9-1
		c36.2-4.5,72.4-8.9,108.5-13.4c36.7-4.5,73.3-9.1,110-13.6C1208.6,400.5,1219.1,399.2,1230.9,397.7z"/>
	<path class="st1" d="M-0.2,134.9c33.9-2.7,67.7-5.4,101.6-8.1c35.5-2.9,71-5.8,106.5-8.7c27.2-2.2,54.4-4.1,81.6-6.3
		c27.2-2.2,54.4-4.5,81.6-6.7c27.2-2.2,54.4-4.2,81.6-6.3c27.2-2.2,54.4-4.5,81.6-6.7c22.9-1.8,45.8-3.5,68.7-5.3
		c23.1-1.8,46.1-3.8,69.2-5.6c18.7-1.5,37.5-2.9,56.2-4.4c18.9-1.5,37.8-3.1,56.7-4.6c18.4-1.5,36.8-2.9,55.2-4.4
		c19.4-1.5,38.8-3.1,58.2-4.7c18.7-1.5,37.5-2.9,56.2-4.4c18.9-1.5,37.8-3.1,56.7-4.6c18.6-1.5,37.2-2.9,55.7-4.4
		c3.8-0.3,7.6-0.7,12.9-1.1c-8.5-5.2-15.9-9.8-23.3-14.3c-17.3-10.6-34.7-21.1-52-31.7c-1.2-0.7-2.2-1.9-3.2-2.8c3.7,0,7.3,0,11,0
		c8.7,5.5,17.3,11.1,26.1,16.4c17.2,10.5,34.4,20.9,51.6,31.4c1.2,0.8,2.4,1.6,5,3.2c-113.2,9-224.9,18-336.8,26.9
		c3.1,13.6-4.6,21.6-13.9,28.4c-13.6,9.9-29.1,15.8-45,20.8c-22.8,7.2-46.1,12.1-69.8,15.7c-29.6,4.5-59.3,8.3-89.3,9.2
		c-19.3,0.6-38.5,2-57.8,2.3c-16.1,0.2-32.2-0.3-48.2-1c-20.5-0.9-41-1.7-61.4-3.6c-47.2-4.4-94-11.2-139-27.2
		c-3.3-1.2-7.1-1.8-10.5-1.6c-35.5,2.6-71,5.4-106.6,8.2c-38,3-76,6.1-114,9.1c-1.1,0.1-2.2,0.5-3.4,0.8
		C-0.2,137.6-0.2,136.3-0.2,134.9z M244,119c0,0.3,0,0.5,0,0.8c1.1,0.4,2.1,0.9,3.2,1.3c30,10.7,61,17.1,92.4,20.7
		c29.7,3.4,59.4,5.9,89.2,7.7c22.4,1.3,44.9,1.4,67.4,1.2c16.6-0.2,33.2-1.5,49.8-2.6c32-2,63.9-5.3,95.5-11.4
		c23-4.4,45.7-9.9,67.4-18.7c10.7-4.3,21-9.4,29.5-17.4c6.1-5.7,10.3-12.2,8-21.6C579,92.3,411.5,105.6,244,119z"/>
	<path class="st1" d="M1360.6,0c13.6,7.6,27.2,15.2,40.8,22.7c38.6,21.1,77.2,42.2,115.8,63.2c50.7,27.6,101.5,55.2,152.2,82.8
		c37,20.2,74,40.5,111,60.7c45.8,25,91.5,49.9,137.3,74.8c0.6,0.3,1.2,0.5,1.8,0.7c0,2.3,0,4.7,0,7c-31.8-17.3-63.6-34.6-95.4-52
		c-85-46.5-170.1-93-255.1-139.5c-72.6-39.7-145.2-79.5-217.8-119.3c-0.6-0.3-1.1-0.7-1.6-1.1C1353.3,0,1357,0,1360.6,0z"/>
	<path class="st1" d="M41.8,0c12.5,11.2,25,22.5,37.6,33.6c1.3,1.2,3.6,1.8,5.4,1.7c48-3.2,96.1-6.6,144.1-9.9
		c39.9-2.8,79.8-5.5,119.7-8.3c46.5-3.2,93.1-6.5,139.6-9.7c30.7-2.1,61.5-4.2,92.2-6.4c2.5-0.2,4.9-0.7,7.4-1c16,0,32,0,48,0
		c-5.9,0.6-11.9,1.4-17.8,1.8c-31.1,2.1-62.1,4.1-93.2,6.3c-35.5,2.5-71.1,5.2-106.6,7.7c-31.1,2.2-62.1,4.2-93.2,6.3
		c-30.9,2.2-61.8,4.5-92.6,6.7c-31.1,2.2-62.1,4.2-93.2,6.3c-20.9,1.4-41.8,3.1-62.8,4.5c-1.8,0.1-4-0.5-5.3-1.6
		C56.9,25.3,42.9,12.6,28.8,0C33.1,0,37.5,0,41.8,0z"/>
	<path class="st1" d="M462.1,80.8c7.2-6.1,30.4-6.2,37.9-0.3C495.5,87.2,469.6,87.6,462.1,80.8z"/>
</g>
</svg>
